<?xml version="1.0" standalone="no"?>
<!DOCTYPE svg PUBLIC "-//W3C//DTD SVG 20010904//EN"
 "http://www.w3.org/TR/2001/REC-SVG-20010904/DTD/svg10.dtd">
<svg version="1.0" xmlns="http://www.w3.org/2000/svg"
 width="127.000000pt" height="127.000000pt" viewBox="0 0 127.000000 127.000000"
 preserveAspectRatio="xMidYMid meet">
<metadata>
Created by potrace 1.14, written by Peter Selinger 2001-2017
</metadata>
<g transform="translate(0.000000,127.000000) scale(0.100000,-0.100000)"
fill="#000000" stroke="none">
<path d="M319 950 l-314 -310 314 -310 314 -310 311 307 c171 170 311 310 311
313 0 3 -140 143 -311 313 l-311 307 -314 -310z m461 -300 l0 -170 -40 0 -40
0 0 140 0 140 -60 0 -60 0 0 -140 0 -140 -40 0 -40 0 0 43 c0 23 3 99 7 170
l6 127 134 0 133 0 0 -170z"/>
</g>
</svg>
